<mxfile host="app.diagrams.net" modified="2023-05-01T07:44:39.920Z" agent="Mozilla/5.0 (X11; Linux x86_64) AppleWebKit/537.36 (KHTML, like Gecko) Chrome/112.0.0.0 Safari/537.36" etag="ovc5YG6yO__XljfP4oMV" version="21.2.3" type="device">
  <diagram id="C5RBs43oDa-KdzZeNtuy" name="Page-1">
    <mxGraphModel dx="1296" dy="728" grid="1" gridSize="10" guides="1" tooltips="1" connect="1" arrows="1" fold="1" page="1" pageScale="1" pageWidth="827" pageHeight="1169" math="0" shadow="1">
      <root>
        <mxCell id="WIyWlLk6GJQsqaUBKTNV-0" />
        <mxCell id="WIyWlLk6GJQsqaUBKTNV-1" parent="WIyWlLk6GJQsqaUBKTNV-0" />
        <mxCell id="x1-yrU4x3XtwjGvSNHW6-3" style="edgeStyle=orthogonalEdgeStyle;rounded=0;orthogonalLoop=1;jettySize=auto;html=1;" edge="1" parent="WIyWlLk6GJQsqaUBKTNV-1" source="x1-yrU4x3XtwjGvSNHW6-0" target="x1-yrU4x3XtwjGvSNHW6-1">
          <mxGeometry relative="1" as="geometry" />
        </mxCell>
        <mxCell id="x1-yrU4x3XtwjGvSNHW6-0" value="BPF程序载入" style="strokeWidth=2;html=1;shape=mxgraph.flowchart.start_1;whiteSpace=wrap;" vertex="1" parent="WIyWlLk6GJQsqaUBKTNV-1">
          <mxGeometry x="170" y="310" width="100" height="60" as="geometry" />
        </mxCell>
        <mxCell id="x1-yrU4x3XtwjGvSNHW6-11" style="edgeStyle=orthogonalEdgeStyle;rounded=0;orthogonalLoop=1;jettySize=auto;html=1;" edge="1" parent="WIyWlLk6GJQsqaUBKTNV-1" source="x1-yrU4x3XtwjGvSNHW6-1" target="x1-yrU4x3XtwjGvSNHW6-4">
          <mxGeometry relative="1" as="geometry">
            <Array as="points">
              <mxPoint x="220" y="500" />
              <mxPoint x="-60" y="500" />
            </Array>
          </mxGeometry>
        </mxCell>
        <mxCell id="x1-yrU4x3XtwjGvSNHW6-12" style="edgeStyle=orthogonalEdgeStyle;rounded=0;orthogonalLoop=1;jettySize=auto;html=1;" edge="1" parent="WIyWlLk6GJQsqaUBKTNV-1" source="x1-yrU4x3XtwjGvSNHW6-1" target="x1-yrU4x3XtwjGvSNHW6-5">
          <mxGeometry relative="1" as="geometry">
            <Array as="points">
              <mxPoint x="220" y="500" />
              <mxPoint x="80" y="500" />
            </Array>
          </mxGeometry>
        </mxCell>
        <mxCell id="x1-yrU4x3XtwjGvSNHW6-13" style="edgeStyle=orthogonalEdgeStyle;rounded=0;orthogonalLoop=1;jettySize=auto;html=1;entryX=0.5;entryY=0;entryDx=0;entryDy=0;" edge="1" parent="WIyWlLk6GJQsqaUBKTNV-1" source="x1-yrU4x3XtwjGvSNHW6-1" target="x1-yrU4x3XtwjGvSNHW6-8">
          <mxGeometry relative="1" as="geometry" />
        </mxCell>
        <mxCell id="x1-yrU4x3XtwjGvSNHW6-14" style="edgeStyle=orthogonalEdgeStyle;rounded=0;orthogonalLoop=1;jettySize=auto;html=1;" edge="1" parent="WIyWlLk6GJQsqaUBKTNV-1" source="x1-yrU4x3XtwjGvSNHW6-1" target="x1-yrU4x3XtwjGvSNHW6-9">
          <mxGeometry relative="1" as="geometry">
            <Array as="points">
              <mxPoint x="220" y="500" />
              <mxPoint x="360" y="500" />
            </Array>
          </mxGeometry>
        </mxCell>
        <mxCell id="x1-yrU4x3XtwjGvSNHW6-15" style="edgeStyle=orthogonalEdgeStyle;rounded=0;orthogonalLoop=1;jettySize=auto;html=1;entryX=0.5;entryY=0;entryDx=0;entryDy=0;" edge="1" parent="WIyWlLk6GJQsqaUBKTNV-1" source="x1-yrU4x3XtwjGvSNHW6-1" target="x1-yrU4x3XtwjGvSNHW6-10">
          <mxGeometry relative="1" as="geometry">
            <Array as="points">
              <mxPoint x="220" y="500" />
              <mxPoint x="500" y="500" />
            </Array>
          </mxGeometry>
        </mxCell>
        <mxCell id="x1-yrU4x3XtwjGvSNHW6-1" value="使用kprobe或fentry探针探测文件系统操作事件" style="rounded=1;whiteSpace=wrap;html=1;fontSize=12;glass=0;strokeWidth=1;shadow=0;" vertex="1" parent="WIyWlLk6GJQsqaUBKTNV-1">
          <mxGeometry x="160" y="420" width="120" height="50" as="geometry" />
        </mxCell>
        <mxCell id="x1-yrU4x3XtwjGvSNHW6-19" style="edgeStyle=orthogonalEdgeStyle;rounded=0;orthogonalLoop=1;jettySize=auto;html=1;" edge="1" parent="WIyWlLk6GJQsqaUBKTNV-1" source="x1-yrU4x3XtwjGvSNHW6-4">
          <mxGeometry relative="1" as="geometry">
            <mxPoint x="220" y="650" as="targetPoint" />
          </mxGeometry>
        </mxCell>
        <mxCell id="x1-yrU4x3XtwjGvSNHW6-23" style="edgeStyle=orthogonalEdgeStyle;rounded=0;orthogonalLoop=1;jettySize=auto;html=1;entryX=0.5;entryY=0;entryDx=0;entryDy=0;" edge="1" parent="WIyWlLk6GJQsqaUBKTNV-1" source="x1-yrU4x3XtwjGvSNHW6-4" target="x1-yrU4x3XtwjGvSNHW6-16">
          <mxGeometry relative="1" as="geometry">
            <Array as="points">
              <mxPoint x="-60" y="620" />
              <mxPoint x="220" y="620" />
            </Array>
          </mxGeometry>
        </mxCell>
        <mxCell id="x1-yrU4x3XtwjGvSNHW6-4" value="vfs_read读操作" style="rounded=1;whiteSpace=wrap;html=1;fontSize=12;glass=0;strokeWidth=1;shadow=0;" vertex="1" parent="WIyWlLk6GJQsqaUBKTNV-1">
          <mxGeometry x="-120" y="545" width="120" height="40" as="geometry" />
        </mxCell>
        <mxCell id="x1-yrU4x3XtwjGvSNHW6-18" style="edgeStyle=orthogonalEdgeStyle;rounded=0;orthogonalLoop=1;jettySize=auto;html=1;entryX=0.5;entryY=0;entryDx=0;entryDy=0;" edge="1" parent="WIyWlLk6GJQsqaUBKTNV-1" source="x1-yrU4x3XtwjGvSNHW6-5" target="x1-yrU4x3XtwjGvSNHW6-16">
          <mxGeometry relative="1" as="geometry">
            <Array as="points">
              <mxPoint x="80" y="620" />
              <mxPoint x="220" y="620" />
            </Array>
          </mxGeometry>
        </mxCell>
        <mxCell id="x1-yrU4x3XtwjGvSNHW6-5" value="vfs_write写操作" style="rounded=1;whiteSpace=wrap;html=1;fontSize=12;glass=0;strokeWidth=1;shadow=0;" vertex="1" parent="WIyWlLk6GJQsqaUBKTNV-1">
          <mxGeometry x="20" y="545" width="120" height="40" as="geometry" />
        </mxCell>
        <mxCell id="x1-yrU4x3XtwjGvSNHW6-17" style="edgeStyle=orthogonalEdgeStyle;rounded=0;orthogonalLoop=1;jettySize=auto;html=1;entryX=0.5;entryY=0;entryDx=0;entryDy=0;" edge="1" parent="WIyWlLk6GJQsqaUBKTNV-1" source="x1-yrU4x3XtwjGvSNHW6-8" target="x1-yrU4x3XtwjGvSNHW6-16">
          <mxGeometry relative="1" as="geometry" />
        </mxCell>
        <mxCell id="x1-yrU4x3XtwjGvSNHW6-8" value="vfs_fsync同步操作" style="rounded=1;whiteSpace=wrap;html=1;fontSize=12;glass=0;strokeWidth=1;shadow=0;" vertex="1" parent="WIyWlLk6GJQsqaUBKTNV-1">
          <mxGeometry x="160" y="545" width="120" height="40" as="geometry" />
        </mxCell>
        <mxCell id="x1-yrU4x3XtwjGvSNHW6-24" style="edgeStyle=orthogonalEdgeStyle;rounded=0;orthogonalLoop=1;jettySize=auto;html=1;entryX=0.5;entryY=0;entryDx=0;entryDy=0;" edge="1" parent="WIyWlLk6GJQsqaUBKTNV-1" source="x1-yrU4x3XtwjGvSNHW6-9" target="x1-yrU4x3XtwjGvSNHW6-16">
          <mxGeometry relative="1" as="geometry">
            <Array as="points">
              <mxPoint x="360" y="620" />
              <mxPoint x="220" y="620" />
            </Array>
          </mxGeometry>
        </mxCell>
        <mxCell id="x1-yrU4x3XtwjGvSNHW6-9" value="vfs_open打开操作" style="rounded=1;whiteSpace=wrap;html=1;fontSize=12;glass=0;strokeWidth=1;shadow=0;" vertex="1" parent="WIyWlLk6GJQsqaUBKTNV-1">
          <mxGeometry x="300" y="545" width="120" height="40" as="geometry" />
        </mxCell>
        <mxCell id="x1-yrU4x3XtwjGvSNHW6-25" style="edgeStyle=orthogonalEdgeStyle;rounded=0;orthogonalLoop=1;jettySize=auto;html=1;" edge="1" parent="WIyWlLk6GJQsqaUBKTNV-1" source="x1-yrU4x3XtwjGvSNHW6-10" target="x1-yrU4x3XtwjGvSNHW6-16">
          <mxGeometry relative="1" as="geometry">
            <Array as="points">
              <mxPoint x="500" y="620" />
              <mxPoint x="220" y="620" />
            </Array>
          </mxGeometry>
        </mxCell>
        <mxCell id="x1-yrU4x3XtwjGvSNHW6-10" value="vfs_create创建操作" style="rounded=1;whiteSpace=wrap;html=1;fontSize=12;glass=0;strokeWidth=1;shadow=0;" vertex="1" parent="WIyWlLk6GJQsqaUBKTNV-1">
          <mxGeometry x="440" y="545" width="120" height="40" as="geometry" />
        </mxCell>
        <mxCell id="x1-yrU4x3XtwjGvSNHW6-27" style="edgeStyle=orthogonalEdgeStyle;rounded=0;orthogonalLoop=1;jettySize=auto;html=1;entryX=0.5;entryY=0;entryDx=0;entryDy=0;" edge="1" parent="WIyWlLk6GJQsqaUBKTNV-1" source="x1-yrU4x3XtwjGvSNHW6-16" target="x1-yrU4x3XtwjGvSNHW6-26">
          <mxGeometry relative="1" as="geometry" />
        </mxCell>
        <mxCell id="x1-yrU4x3XtwjGvSNHW6-16" value="使用stats数组，分别对应不同操作的枚举key原子方式计数" style="rounded=1;whiteSpace=wrap;html=1;fontSize=12;glass=0;strokeWidth=1;shadow=0;" vertex="1" parent="WIyWlLk6GJQsqaUBKTNV-1">
          <mxGeometry x="160" y="650" width="120" height="50" as="geometry" />
        </mxCell>
        <mxCell id="x1-yrU4x3XtwjGvSNHW6-29" style="edgeStyle=orthogonalEdgeStyle;rounded=0;orthogonalLoop=1;jettySize=auto;html=1;entryX=0.5;entryY=0;entryDx=0;entryDy=0;entryPerimeter=0;" edge="1" parent="WIyWlLk6GJQsqaUBKTNV-1" source="x1-yrU4x3XtwjGvSNHW6-26" target="x1-yrU4x3XtwjGvSNHW6-28">
          <mxGeometry relative="1" as="geometry" />
        </mxCell>
        <mxCell id="x1-yrU4x3XtwjGvSNHW6-26" value="用户态程序通过bss周期性获取stats数组信息并进行分析和优化，同时清空stats数组" style="rounded=1;whiteSpace=wrap;html=1;fontSize=12;glass=0;strokeWidth=1;shadow=0;" vertex="1" parent="WIyWlLk6GJQsqaUBKTNV-1">
          <mxGeometry x="160" y="750" width="120" height="70" as="geometry" />
        </mxCell>
        <mxCell id="x1-yrU4x3XtwjGvSNHW6-28" value="流程结束，等待下次事件发生" style="strokeWidth=2;html=1;shape=mxgraph.flowchart.start_1;whiteSpace=wrap;" vertex="1" parent="WIyWlLk6GJQsqaUBKTNV-1">
          <mxGeometry x="170" y="870" width="100" height="60" as="geometry" />
        </mxCell>
      </root>
    </mxGraphModel>
  </diagram>
</mxfile>
